<mxfile host="Electron" modified="2025-06-02T01:18:56.824Z" agent="Mozilla/5.0 (Macintosh; Intel Mac OS X 10_15_7) AppleWebKit/537.36 (KHTML, like Gecko) draw.io/22.0.3 Chrome/114.0.5735.289 Electron/25.8.4 Safari/537.36" etag="aM5JajXgnrn0K6YoRA2-" version="22.0.3" type="device">
  <diagram name="Page-1" id="IJpIx6NnuX0QdGvdtIe6">
    <mxGraphModel dx="1828" dy="1029" grid="1" gridSize="10" guides="1" tooltips="1" connect="1" arrows="1" fold="1" page="1" pageScale="1" pageWidth="850" pageHeight="1100" math="0" shadow="0">
      <root>
        <mxCell id="0" />
        <mxCell id="1" parent="0" />
        <mxCell id="BZxrtc8_AJxCAqxQdeYi-37" value="" style="edgeStyle=orthogonalEdgeStyle;rounded=0;orthogonalLoop=1;jettySize=auto;html=1;" edge="1" parent="1" target="BZxrtc8_AJxCAqxQdeYi-18">
          <mxGeometry relative="1" as="geometry">
            <mxPoint x="310.5" y="764" as="sourcePoint" />
          </mxGeometry>
        </mxCell>
        <mxCell id="BZxrtc8_AJxCAqxQdeYi-2" value="&amp;nbsp; ADO" style="rounded=0;whiteSpace=wrap;html=1;sketch=1;curveFitting=1;jiggle=2;fillColor=#fff2cc;strokeColor=#d6b656;verticalAlign=top;align=left;fontFamily=Comic Sans MS;" vertex="1" parent="1">
          <mxGeometry x="190" y="40" width="240" height="710" as="geometry" />
        </mxCell>
        <mxCell id="BZxrtc8_AJxCAqxQdeYi-5" value="" style="image;aspect=fixed;html=1;points=[];align=center;fontSize=12;image=img/lib/azure2/devops/Azure_DevOps.svg;sketch=1;curveFitting=1;jiggle=2;imageBorder=none;imageBackground=none;opacity=50;" vertex="1" parent="1">
          <mxGeometry x="290.5" y="57" width="40" height="40" as="geometry" />
        </mxCell>
        <mxCell id="BZxrtc8_AJxCAqxQdeYi-6" value="&lt;font face=&quot;Comic Sans MS&quot;&gt;&lt;br&gt;ADO Pipeline&lt;/font&gt;" style="rounded=1;whiteSpace=wrap;html=1;sketch=1;curveFitting=1;jiggle=2;fillColor=#dae8fc;strokeColor=#6c8ebf;verticalAlign=top;" vertex="1" parent="1">
          <mxGeometry x="209.75" y="210" width="201.5" height="520" as="geometry" />
        </mxCell>
        <mxCell id="BZxrtc8_AJxCAqxQdeYi-10" style="edgeStyle=orthogonalEdgeStyle;rounded=0;orthogonalLoop=1;jettySize=auto;html=1;sketch=1;curveFitting=1;jiggle=2;" edge="1" parent="1" source="BZxrtc8_AJxCAqxQdeYi-9" target="BZxrtc8_AJxCAqxQdeYi-2">
          <mxGeometry relative="1" as="geometry" />
        </mxCell>
        <mxCell id="BZxrtc8_AJxCAqxQdeYi-21" value="&amp;nbsp;run pipeline&amp;nbsp;" style="edgeLabel;html=1;align=center;verticalAlign=middle;resizable=0;points=[];fontFamily=Comic Sans MS;" vertex="1" connectable="0" parent="BZxrtc8_AJxCAqxQdeYi-10">
          <mxGeometry x="-0.104" y="-1" relative="1" as="geometry">
            <mxPoint as="offset" />
          </mxGeometry>
        </mxCell>
        <mxCell id="BZxrtc8_AJxCAqxQdeYi-9" value="ADO&lt;br&gt;User" style="shape=umlActor;verticalLabelPosition=bottom;verticalAlign=top;html=1;outlineConnect=0;sketch=1;curveFitting=1;jiggle=2;fontFamily=Comic Sans MS;" vertex="1" parent="1">
          <mxGeometry x="40" y="134" width="30" height="60" as="geometry" />
        </mxCell>
        <mxCell id="BZxrtc8_AJxCAqxQdeYi-11" value="&amp;nbsp; SKE Cluster" style="rounded=0;whiteSpace=wrap;html=1;sketch=1;curveFitting=1;jiggle=2;fillColor=#e1d5e7;strokeColor=#9673a6;horizontal=1;verticalAlign=top;align=left;fontFamily=Comic Sans MS;" vertex="1" parent="1">
          <mxGeometry x="492.58" y="650" width="240" height="90" as="geometry" />
        </mxCell>
        <mxCell id="BZxrtc8_AJxCAqxQdeYi-12" value="" style="sketch=0;html=1;dashed=0;whitespace=wrap;fillColor=#2875E2;strokeColor=#ffffff;points=[[0.005,0.63,0],[0.1,0.2,0],[0.9,0.2,0],[0.5,0,0],[0.995,0.63,0],[0.72,0.99,0],[0.5,1,0],[0.28,0.99,0]];verticalLabelPosition=bottom;align=center;verticalAlign=top;shape=mxgraph.kubernetes.icon;prIcon=api" vertex="1" parent="1">
          <mxGeometry x="532.58" y="677" width="50" height="48" as="geometry" />
        </mxCell>
        <mxCell id="BZxrtc8_AJxCAqxQdeYi-13" value="" style="sketch=0;html=1;dashed=0;whitespace=wrap;fillColor=#2875E2;strokeColor=#ffffff;points=[[0.005,0.63,0],[0.1,0.2,0],[0.9,0.2,0],[0.5,0,0],[0.995,0.63,0],[0.72,0.99,0],[0.5,1,0],[0.28,0.99,0]];verticalLabelPosition=bottom;align=center;verticalAlign=top;shape=mxgraph.kubernetes.icon;prIcon=etcd" vertex="1" parent="1">
          <mxGeometry x="642.58" y="675" width="50" height="48" as="geometry" />
        </mxCell>
        <mxCell id="BZxrtc8_AJxCAqxQdeYi-14" style="edgeStyle=orthogonalEdgeStyle;rounded=0;orthogonalLoop=1;jettySize=auto;html=1;entryX=-0.02;entryY=0.533;entryDx=0;entryDy=0;entryPerimeter=0;sketch=1;curveFitting=1;jiggle=2;" edge="1" parent="1" source="BZxrtc8_AJxCAqxQdeYi-12" target="BZxrtc8_AJxCAqxQdeYi-13">
          <mxGeometry relative="1" as="geometry" />
        </mxCell>
        <mxCell id="BZxrtc8_AJxCAqxQdeYi-24" value="&amp;nbsp;save&lt;br&gt;state" style="edgeLabel;html=1;align=center;verticalAlign=middle;resizable=0;points=[];fontFamily=Comic Sans MS;labelBackgroundColor=none;" vertex="1" connectable="0" parent="BZxrtc8_AJxCAqxQdeYi-14">
          <mxGeometry x="-0.1284" y="1" relative="1" as="geometry">
            <mxPoint as="offset" />
          </mxGeometry>
        </mxCell>
        <mxCell id="BZxrtc8_AJxCAqxQdeYi-18" value="Email" style="verticalLabelPosition=bottom;shadow=0;dashed=0;align=center;html=1;verticalAlign=top;strokeWidth=1;shape=mxgraph.mockup.misc.mail2;strokeColor=#999999;sketch=1;curveFitting=1;jiggle=2;fontFamily=Comic Sans MS;" vertex="1" parent="1">
          <mxGeometry x="285.5" y="814" width="50" height="30" as="geometry" />
        </mxCell>
        <mxCell id="BZxrtc8_AJxCAqxQdeYi-26" value="" style="image;sketch=0;aspect=fixed;html=1;points=[];align=center;fontSize=12;image=img/lib/mscae/Azure_Repos.svg;opacity=50;" vertex="1" parent="1">
          <mxGeometry x="230" y="118" width="30.6" height="34" as="geometry" />
        </mxCell>
        <mxCell id="BZxrtc8_AJxCAqxQdeYi-27" value="" style="image;sketch=0;aspect=fixed;html=1;points=[];align=center;fontSize=12;image=img/lib/mscae/Azure_Pipelines.svg;opacity=50;" vertex="1" parent="1">
          <mxGeometry x="230" y="222" width="30" height="30" as="geometry" />
        </mxCell>
        <mxCell id="BZxrtc8_AJxCAqxQdeYi-29" style="edgeStyle=orthogonalEdgeStyle;rounded=0;orthogonalLoop=1;jettySize=auto;html=1;sketch=1;curveFitting=1;jiggle=2;" edge="1" parent="1" source="BZxrtc8_AJxCAqxQdeYi-28" target="BZxrtc8_AJxCAqxQdeYi-6">
          <mxGeometry relative="1" as="geometry" />
        </mxCell>
        <mxCell id="BZxrtc8_AJxCAqxQdeYi-30" value="&lt;font face=&quot;Comic Sans MS&quot;&gt;&amp;nbsp;checkout&amp;nbsp;&lt;/font&gt;" style="edgeLabel;html=1;align=center;verticalAlign=middle;resizable=0;points=[];labelBackgroundColor=none;" vertex="1" connectable="0" parent="BZxrtc8_AJxCAqxQdeYi-29">
          <mxGeometry x="0.137" y="-1" relative="1" as="geometry">
            <mxPoint x="31" y="-8" as="offset" />
          </mxGeometry>
        </mxCell>
        <mxCell id="BZxrtc8_AJxCAqxQdeYi-28" value="&lt;font face=&quot;Comic Sans MS&quot;&gt;ADO Repo &lt;br&gt;(release)&lt;/font&gt;" style="rounded=1;whiteSpace=wrap;html=1;sketch=1;curveFitting=1;jiggle=2;fillColor=#dae8fc;strokeColor=#6c8ebf;" vertex="1" parent="1">
          <mxGeometry x="209.75" y="110" width="201.5" height="50" as="geometry" />
        </mxCell>
        <mxCell id="BZxrtc8_AJxCAqxQdeYi-35" style="edgeStyle=orthogonalEdgeStyle;rounded=0;orthogonalLoop=1;jettySize=auto;html=1;sketch=1;curveFitting=1;jiggle=2;entryX=0.5;entryY=0;entryDx=0;entryDy=0;" edge="1" parent="1" source="BZxrtc8_AJxCAqxQdeYi-31" target="BZxrtc8_AJxCAqxQdeYi-58">
          <mxGeometry relative="1" as="geometry">
            <mxPoint x="310" y="450" as="targetPoint" />
          </mxGeometry>
        </mxCell>
        <mxCell id="BZxrtc8_AJxCAqxQdeYi-36" value="&lt;font face=&quot;Comic Sans MS&quot;&gt;&amp;nbsp;depends on&amp;nbsp;&lt;/font&gt;" style="edgeLabel;html=1;align=center;verticalAlign=middle;resizable=0;points=[];labelBackgroundColor=none;" vertex="1" connectable="0" parent="BZxrtc8_AJxCAqxQdeYi-35">
          <mxGeometry x="-0.0423" y="-1" relative="1" as="geometry">
            <mxPoint x="41" as="offset" />
          </mxGeometry>
        </mxCell>
        <mxCell id="BZxrtc8_AJxCAqxQdeYi-53" style="edgeStyle=orthogonalEdgeStyle;rounded=0;orthogonalLoop=1;jettySize=auto;html=1;sketch=1;curveFitting=1;jiggle=2;" edge="1" parent="1" source="BZxrtc8_AJxCAqxQdeYi-31" target="BZxrtc8_AJxCAqxQdeYi-40">
          <mxGeometry relative="1" as="geometry">
            <Array as="points">
              <mxPoint x="311" y="252" />
            </Array>
          </mxGeometry>
        </mxCell>
        <mxCell id="BZxrtc8_AJxCAqxQdeYi-54" value="&amp;nbsp;ldap search&amp;nbsp;" style="edgeLabel;html=1;align=center;verticalAlign=middle;resizable=0;points=[];fontFamily=Comic Sans MS;labelBackgroundColor=none;" vertex="1" connectable="0" parent="BZxrtc8_AJxCAqxQdeYi-53">
          <mxGeometry x="0.3575" y="3" relative="1" as="geometry">
            <mxPoint y="-9" as="offset" />
          </mxGeometry>
        </mxCell>
        <mxCell id="BZxrtc8_AJxCAqxQdeYi-31" value="Authorization" style="rounded=1;whiteSpace=wrap;html=1;sketch=1;curveFitting=1;jiggle=2;fillColor=#f5f5f5;strokeColor=#666666;fontColor=#333333;fontFamily=Comic Sans MS;" vertex="1" parent="1">
          <mxGeometry x="235.5" y="278" width="150" height="84" as="geometry" />
        </mxCell>
        <mxCell id="BZxrtc8_AJxCAqxQdeYi-33" style="edgeStyle=orthogonalEdgeStyle;rounded=0;orthogonalLoop=1;jettySize=auto;html=1;entryX=0;entryY=0.5;entryDx=0;entryDy=0;sketch=1;curveFitting=1;jiggle=2;" edge="1" parent="1" source="BZxrtc8_AJxCAqxQdeYi-32" target="BZxrtc8_AJxCAqxQdeYi-11">
          <mxGeometry relative="1" as="geometry" />
        </mxCell>
        <mxCell id="BZxrtc8_AJxCAqxQdeYi-39" value="&amp;nbsp;api &lt;br&gt;call" style="edgeLabel;html=1;align=center;verticalAlign=middle;resizable=0;points=[];fontFamily=Comic Sans MS;" vertex="1" connectable="0" parent="BZxrtc8_AJxCAqxQdeYi-33">
          <mxGeometry x="0.5076" y="-1" relative="1" as="geometry">
            <mxPoint x="-6" y="-1" as="offset" />
          </mxGeometry>
        </mxCell>
        <mxCell id="BZxrtc8_AJxCAqxQdeYi-34" style="edgeStyle=orthogonalEdgeStyle;rounded=0;orthogonalLoop=1;jettySize=auto;html=1;sketch=1;curveFitting=1;jiggle=2;" edge="1" parent="1" source="BZxrtc8_AJxCAqxQdeYi-32" target="BZxrtc8_AJxCAqxQdeYi-18">
          <mxGeometry relative="1" as="geometry" />
        </mxCell>
        <mxCell id="BZxrtc8_AJxCAqxQdeYi-38" value="notify" style="edgeLabel;html=1;align=center;verticalAlign=middle;resizable=0;points=[];fontFamily=Comic Sans MS;labelBackgroundColor=default;" vertex="1" connectable="0" parent="BZxrtc8_AJxCAqxQdeYi-34">
          <mxGeometry x="0.1465" y="1" relative="1" as="geometry">
            <mxPoint x="-1" y="15" as="offset" />
          </mxGeometry>
        </mxCell>
        <mxCell id="BZxrtc8_AJxCAqxQdeYi-32" value="x" style="rounded=1;whiteSpace=wrap;html=1;sketch=1;curveFitting=1;jiggle=2;fillColor=#f5f5f5;strokeColor=#666666;fontColor=#333333;fontFamily=Comic Sans MS;" vertex="1" parent="1">
          <mxGeometry x="235.5" y="680" width="150" height="30" as="geometry" />
        </mxCell>
        <mxCell id="BZxrtc8_AJxCAqxQdeYi-48" style="edgeStyle=orthogonalEdgeStyle;rounded=0;orthogonalLoop=1;jettySize=auto;html=1;entryX=1;entryY=0.5;entryDx=0;entryDy=0;sketch=1;curveFitting=1;jiggle=2;exitX=0.5;exitY=1;exitDx=0;exitDy=0;" edge="1" parent="1" source="BZxrtc8_AJxCAqxQdeYi-40" target="BZxrtc8_AJxCAqxQdeYi-31">
          <mxGeometry relative="1" as="geometry">
            <mxPoint x="624.5100000000002" y="290" as="sourcePoint" />
            <mxPoint x="400.00999999999976" y="320" as="targetPoint" />
            <Array as="points">
              <mxPoint x="610" y="320" />
            </Array>
          </mxGeometry>
        </mxCell>
        <mxCell id="BZxrtc8_AJxCAqxQdeYi-49" value="&amp;nbsp;list memberOf&amp;nbsp;" style="edgeLabel;html=1;align=center;verticalAlign=middle;resizable=0;points=[];fontFamily=Comic Sans MS;labelBackgroundColor=none;" vertex="1" connectable="0" parent="BZxrtc8_AJxCAqxQdeYi-48">
          <mxGeometry x="-0.0225" y="2" relative="1" as="geometry">
            <mxPoint x="-19" y="-11" as="offset" />
          </mxGeometry>
        </mxCell>
        <mxCell id="BZxrtc8_AJxCAqxQdeYi-40" value="&amp;nbsp;Ldap Server&amp;nbsp;" style="rounded=0;whiteSpace=wrap;html=1;sketch=1;curveFitting=1;jiggle=2;fillColor=#d5e8d4;strokeColor=#82b366;horizontal=1;verticalAlign=top;align=left;fontFamily=Comic Sans MS;" vertex="1" parent="1">
          <mxGeometry x="550" y="210" width="120" height="84" as="geometry" />
        </mxCell>
        <mxCell id="BZxrtc8_AJxCAqxQdeYi-41" value="" style="verticalLabelPosition=bottom;html=1;verticalAlign=top;align=center;strokeColor=none;fillColor=#00BEF2;shape=mxgraph.azure.azure_active_directory;opacity=50;" vertex="1" parent="1">
          <mxGeometry x="584.25" y="234" width="47.5" height="50" as="geometry" />
        </mxCell>
        <mxCell id="BZxrtc8_AJxCAqxQdeYi-55" value="&lt;h1&gt;&lt;font style=&quot;font-size: 19px;&quot;&gt;Authorization&lt;/font&gt;&lt;/h1&gt;&lt;p&gt;&lt;b&gt;&amp;gt;&lt;/b&gt; Parse group membership&lt;br&gt;&lt;span style=&quot;background-color: initial;&quot;&gt;&lt;b&gt;&amp;gt;&lt;/b&gt; Check if member of x Group (vs &lt;b&gt;&lt;i&gt;&lt;font color=&quot;#ff8000&quot;&gt;Param: x&lt;/font&gt;&lt;/i&gt;&lt;/b&gt;)&lt;br&gt;&lt;font color=&quot;#ff0000&quot;&gt;&lt;i&gt;Note: Relies on pre-configured users group-membership&lt;/i&gt;&lt;/font&gt;&lt;/span&gt;&lt;/p&gt;&lt;p&gt;&lt;br&gt;&lt;/p&gt;" style="text;html=1;strokeColor=none;fillColor=none;spacing=5;spacingTop=-20;whiteSpace=wrap;overflow=hidden;rounded=0;fontFamily=Comic Sans MS;spacingBottom=0;" vertex="1" parent="1">
          <mxGeometry x="440" y="332" width="330" height="100" as="geometry" />
        </mxCell>
        <mxCell id="BZxrtc8_AJxCAqxQdeYi-57" value="&lt;font face=&quot;Comic Sans MS&quot; style=&quot;font-size: 10px;&quot;&gt;current-context&lt;/font&gt;" style="text;html=1;align=center;verticalAlign=middle;resizable=0;points=[];autosize=1;strokeColor=none;fillColor=none;fontSize=10;fontStyle=3;fontColor=#FF8000;" vertex="1" parent="1">
          <mxGeometry x="285.5" y="275" width="100" height="30" as="geometry" />
        </mxCell>
        <mxCell id="BZxrtc8_AJxCAqxQdeYi-59" style="edgeStyle=orthogonalEdgeStyle;rounded=0;orthogonalLoop=1;jettySize=auto;html=1;entryX=0.5;entryY=0;entryDx=0;entryDy=0;sketch=1;curveFitting=1;jiggle=2;" edge="1" parent="1" source="BZxrtc8_AJxCAqxQdeYi-58" target="BZxrtc8_AJxCAqxQdeYi-32">
          <mxGeometry relative="1" as="geometry" />
        </mxCell>
        <mxCell id="BZxrtc8_AJxCAqxQdeYi-60" value="&amp;nbsp;depends on" style="edgeLabel;html=1;align=center;verticalAlign=middle;resizable=0;points=[];fontFamily=Comic Sans MS;labelBackgroundColor=none;" vertex="1" connectable="0" parent="BZxrtc8_AJxCAqxQdeYi-59">
          <mxGeometry x="-0.0357" y="2" relative="1" as="geometry">
            <mxPoint x="-42" as="offset" />
          </mxGeometry>
        </mxCell>
        <mxCell id="BZxrtc8_AJxCAqxQdeYi-58" value="Change Validation" style="rounded=1;whiteSpace=wrap;html=1;sketch=1;curveFitting=1;jiggle=2;fillColor=#f5f5f5;strokeColor=#666666;fontColor=#333333;fontFamily=Comic Sans MS;" vertex="1" parent="1">
          <mxGeometry x="235.5" y="470" width="150" height="50" as="geometry" />
        </mxCell>
        <mxCell id="BZxrtc8_AJxCAqxQdeYi-61" value="&lt;h1&gt;&lt;font style=&quot;font-size: 19px;&quot;&gt;Change Validation&lt;/font&gt;&lt;/h1&gt;&lt;p&gt;&lt;b&gt;&amp;gt;&lt;/b&gt; Parse checkout-changes&lt;br&gt;&lt;b style=&quot;border-color: var(--border-color);&quot;&gt;&amp;gt;&lt;/b&gt;&amp;nbsp;Parse group membership&lt;br&gt;&lt;span style=&quot;background-color: initial;&quot;&gt;&lt;b&gt;&amp;gt;&lt;/b&gt; Allow .resource-qouta change only if memberOf x&lt;br&gt;&lt;/span&gt;&lt;/p&gt;&lt;p&gt;&lt;br&gt;&lt;/p&gt;" style="text;html=1;strokeColor=none;fillColor=none;spacing=5;spacingTop=-20;whiteSpace=wrap;overflow=hidden;rounded=0;fontFamily=Comic Sans MS;spacingBottom=0;" vertex="1" parent="1">
          <mxGeometry x="440" y="432" width="420" height="105" as="geometry" />
        </mxCell>
        <mxCell id="BZxrtc8_AJxCAqxQdeYi-63" value="&amp;nbsp; SKE Cluster" style="rounded=0;whiteSpace=wrap;html=1;sketch=1;curveFitting=1;jiggle=2;fillColor=#e1d5e7;strokeColor=#9673a6;horizontal=1;verticalAlign=top;align=left;fontFamily=Comic Sans MS;" vertex="1" parent="1">
          <mxGeometry x="1020" y="40" width="510" height="670" as="geometry" />
        </mxCell>
        <mxCell id="BZxrtc8_AJxCAqxQdeYi-64" value="API" style="sketch=0;html=1;dashed=0;whitespace=wrap;fillColor=#2875E2;strokeColor=#ffffff;points=[[0.005,0.63,0],[0.1,0.2,0],[0.9,0.2,0],[0.5,0,0],[0.995,0.63,0],[0.72,0.99,0],[0.5,1,0],[0.28,0.99,0]];verticalLabelPosition=bottom;align=center;verticalAlign=top;shape=mxgraph.kubernetes.icon;prIcon=api;fontFamily=Comic Sans MS;" vertex="1" parent="1">
          <mxGeometry x="1110" y="87" width="50" height="48" as="geometry" />
        </mxCell>
        <mxCell id="BZxrtc8_AJxCAqxQdeYi-65" value="&lt;font face=&quot;Comic Sans MS&quot;&gt;ETCD&lt;/font&gt;" style="sketch=0;html=1;dashed=0;whitespace=wrap;fillColor=#2875E2;strokeColor=#ffffff;points=[[0.005,0.63,0],[0.1,0.2,0],[0.9,0.2,0],[0.5,0,0],[0.995,0.63,0],[0.72,0.99,0],[0.5,1,0],[0.28,0.99,0]];verticalLabelPosition=bottom;align=center;verticalAlign=top;shape=mxgraph.kubernetes.icon;prIcon=etcd" vertex="1" parent="1">
          <mxGeometry x="1380" y="256" width="50" height="48" as="geometry" />
        </mxCell>
        <mxCell id="BZxrtc8_AJxCAqxQdeYi-70" style="edgeStyle=orthogonalEdgeStyle;rounded=0;orthogonalLoop=1;jettySize=auto;html=1;fontFamily=Comic Sans MS;sketch=1;curveFitting=1;jiggle=2;" edge="1" parent="1" source="BZxrtc8_AJxCAqxQdeYi-69" target="BZxrtc8_AJxCAqxQdeYi-63">
          <mxGeometry relative="1" as="geometry">
            <Array as="points">
              <mxPoint x="970" y="111" />
              <mxPoint x="970" y="295" />
            </Array>
          </mxGeometry>
        </mxCell>
        <mxCell id="BZxrtc8_AJxCAqxQdeYi-71" value="&amp;nbsp;kubectl / api call" style="edgeLabel;html=1;align=center;verticalAlign=middle;resizable=0;points=[];fontFamily=Comic Sans MS;" vertex="1" connectable="0" parent="BZxrtc8_AJxCAqxQdeYi-70">
          <mxGeometry x="-0.0993" y="-1" relative="1" as="geometry">
            <mxPoint as="offset" />
          </mxGeometry>
        </mxCell>
        <mxCell id="BZxrtc8_AJxCAqxQdeYi-69" value="K8s Client" style="shape=umlActor;verticalLabelPosition=bottom;verticalAlign=top;html=1;outlineConnect=0;sketch=1;curveFitting=1;jiggle=2;fontFamily=Comic Sans MS;" vertex="1" parent="1">
          <mxGeometry x="900" y="75" width="30" height="60" as="geometry" />
        </mxCell>
        <mxCell id="BZxrtc8_AJxCAqxQdeYi-77" style="edgeStyle=orthogonalEdgeStyle;rounded=0;orthogonalLoop=1;jettySize=auto;html=1;entryX=0.5;entryY=0;entryDx=0;entryDy=0;sketch=1;curveFitting=1;jiggle=2;" edge="1" parent="1" source="BZxrtc8_AJxCAqxQdeYi-74" target="BZxrtc8_AJxCAqxQdeYi-76">
          <mxGeometry relative="1" as="geometry" />
        </mxCell>
        <mxCell id="BZxrtc8_AJxCAqxQdeYi-74" value="Auth" style="sketch=0;html=1;dashed=0;whitespace=wrap;fillColor=#2875E2;strokeColor=#ffffff;points=[[0.005,0.63,0],[0.1,0.2,0],[0.9,0.2,0],[0.5,0,0],[0.995,0.63,0],[0.72,0.99,0],[0.5,1,0],[0.28,0.99,0]];verticalLabelPosition=bottom;align=center;verticalAlign=top;shape=mxgraph.kubernetes.icon;prIcon=c_role;fontFamily=Comic Sans MS;" vertex="1" parent="1">
          <mxGeometry x="1241.07" y="81" width="50" height="48" as="geometry" />
        </mxCell>
        <mxCell id="BZxrtc8_AJxCAqxQdeYi-75" style="edgeStyle=orthogonalEdgeStyle;rounded=0;orthogonalLoop=1;jettySize=auto;html=1;entryX=0.005;entryY=0.63;entryDx=0;entryDy=0;entryPerimeter=0;sketch=1;curveFitting=1;jiggle=2;" edge="1" parent="1" source="BZxrtc8_AJxCAqxQdeYi-64" target="BZxrtc8_AJxCAqxQdeYi-74">
          <mxGeometry relative="1" as="geometry" />
        </mxCell>
        <mxCell id="BZxrtc8_AJxCAqxQdeYi-76" value="Object&lt;br&gt;Validation" style="rounded=1;whiteSpace=wrap;html=1;sketch=1;curveFitting=1;jiggle=2;fontFamily=Comic Sans MS;" vertex="1" parent="1">
          <mxGeometry x="1221.07" y="182" width="90" height="40" as="geometry" />
        </mxCell>
        <mxCell id="BZxrtc8_AJxCAqxQdeYi-84" style="edgeStyle=orthogonalEdgeStyle;rounded=0;orthogonalLoop=1;jettySize=auto;html=1;entryX=0.388;entryY=-0.019;entryDx=0;entryDy=0;exitX=0.28;exitY=0.99;exitDx=0;exitDy=0;exitPerimeter=0;sketch=1;curveFitting=1;jiggle=2;entryPerimeter=0;" edge="1" parent="1" source="BZxrtc8_AJxCAqxQdeYi-78" target="BZxrtc8_AJxCAqxQdeYi-89">
          <mxGeometry relative="1" as="geometry">
            <mxPoint x="1228.5699999999997" y="452" as="targetPoint" />
          </mxGeometry>
        </mxCell>
        <mxCell id="BZxrtc8_AJxCAqxQdeYi-85" style="edgeStyle=orthogonalEdgeStyle;rounded=0;orthogonalLoop=1;jettySize=auto;html=1;entryX=0.565;entryY=0;entryDx=0;entryDy=0;exitX=0.72;exitY=0.99;exitDx=0;exitDy=0;exitPerimeter=0;sketch=1;curveFitting=1;jiggle=2;startArrow=classic;startFill=1;endArrow=none;endFill=0;entryPerimeter=0;" edge="1" parent="1" source="BZxrtc8_AJxCAqxQdeYi-78" target="BZxrtc8_AJxCAqxQdeYi-89">
          <mxGeometry relative="1" as="geometry">
            <mxPoint x="1303.5699999999997" y="452" as="targetPoint" />
          </mxGeometry>
        </mxCell>
        <mxCell id="BZxrtc8_AJxCAqxQdeYi-78" value="&lt;font face=&quot;Comic Sans MS&quot;&gt;Validating Admission&lt;br&gt;Controller&lt;/font&gt;" style="sketch=0;html=1;dashed=0;whitespace=wrap;fillColor=#2875E2;strokeColor=#ffffff;points=[[0.005,0.63,0],[0.1,0.2,0],[0.9,0.2,0],[0.5,0,0],[0.995,0.63,0],[0.72,0.99,0],[0.5,1,0],[0.28,0.99,0]];verticalLabelPosition=bottom;align=center;verticalAlign=top;shape=mxgraph.kubernetes.icon;prIcon=cm" vertex="1" parent="1">
          <mxGeometry x="1241.07" y="262" width="50" height="48" as="geometry" />
        </mxCell>
        <mxCell id="BZxrtc8_AJxCAqxQdeYi-79" style="edgeStyle=orthogonalEdgeStyle;rounded=0;orthogonalLoop=1;jettySize=auto;html=1;entryX=0.5;entryY=0;entryDx=0;entryDy=0;entryPerimeter=0;sketch=1;curveFitting=1;jiggle=2;" edge="1" parent="1" source="BZxrtc8_AJxCAqxQdeYi-76" target="BZxrtc8_AJxCAqxQdeYi-78">
          <mxGeometry relative="1" as="geometry" />
        </mxCell>
        <mxCell id="BZxrtc8_AJxCAqxQdeYi-80" style="edgeStyle=orthogonalEdgeStyle;rounded=0;orthogonalLoop=1;jettySize=auto;html=1;entryX=0.005;entryY=0.63;entryDx=0;entryDy=0;entryPerimeter=0;sketch=1;curveFitting=1;jiggle=2;" edge="1" parent="1" source="BZxrtc8_AJxCAqxQdeYi-78" target="BZxrtc8_AJxCAqxQdeYi-65">
          <mxGeometry relative="1" as="geometry" />
        </mxCell>
        <mxCell id="BZxrtc8_AJxCAqxQdeYi-86" value="Admission &lt;br&gt;Review" style="text;html=1;align=center;verticalAlign=middle;resizable=0;points=[];autosize=1;strokeColor=none;fillColor=none;fontFamily=Comic Sans MS;" vertex="1" parent="1">
          <mxGeometry x="1130" y="392" width="80" height="40" as="geometry" />
        </mxCell>
        <mxCell id="BZxrtc8_AJxCAqxQdeYi-87" value="Admission &lt;br&gt;Review Response" style="text;html=1;align=center;verticalAlign=middle;resizable=0;points=[];autosize=1;strokeColor=none;fillColor=none;fontFamily=Comic Sans MS;" vertex="1" parent="1">
          <mxGeometry x="1301" y="392" width="120" height="40" as="geometry" />
        </mxCell>
        <mxCell id="BZxrtc8_AJxCAqxQdeYi-89" value="&amp;nbsp; Webhook Logic" style="rounded=0;whiteSpace=wrap;html=1;sketch=1;curveFitting=1;jiggle=2;horizontal=1;verticalAlign=top;align=left;fontFamily=Comic Sans MS;fillColor=#f5f5f5;fontColor=#333333;strokeColor=#666666;" vertex="1" parent="1">
          <mxGeometry x="1055" y="460" width="440" height="220" as="geometry" />
        </mxCell>
        <mxCell id="BZxrtc8_AJxCAqxQdeYi-97" style="edgeStyle=orthogonalEdgeStyle;rounded=0;orthogonalLoop=1;jettySize=auto;html=1;entryX=0.5;entryY=1;entryDx=0;entryDy=0;sketch=1;curveFitting=1;jiggle=2;" edge="1" parent="1" source="BZxrtc8_AJxCAqxQdeYi-90" target="BZxrtc8_AJxCAqxQdeYi-93">
          <mxGeometry relative="1" as="geometry">
            <Array as="points">
              <mxPoint x="1150" y="640" />
              <mxPoint x="1405" y="640" />
            </Array>
          </mxGeometry>
        </mxCell>
        <mxCell id="BZxrtc8_AJxCAqxQdeYi-90" value="Change Validation" style="rounded=1;whiteSpace=wrap;html=1;sketch=1;curveFitting=1;jiggle=2;fillColor=#f5f5f5;strokeColor=#666666;fontColor=#333333;fontFamily=Comic Sans MS;" vertex="1" parent="1">
          <mxGeometry x="1075" y="544" width="150" height="50" as="geometry" />
        </mxCell>
        <mxCell id="BZxrtc8_AJxCAqxQdeYi-91" value="&amp;nbsp;ldap search&amp;nbsp;" style="edgeLabel;html=1;align=center;verticalAlign=middle;resizable=0;points=[];fontFamily=Comic Sans MS;labelBackgroundColor=none;" vertex="1" connectable="0" parent="1">
          <mxGeometry x="1274.6738095238095" y="497.4976190476191" as="geometry" />
        </mxCell>
        <mxCell id="BZxrtc8_AJxCAqxQdeYi-92" value="&amp;nbsp;list memberOf&amp;nbsp;" style="edgeLabel;html=1;align=center;verticalAlign=middle;resizable=0;points=[];fontFamily=Comic Sans MS;labelBackgroundColor=none;" vertex="1" connectable="0" parent="1">
          <mxGeometry x="1285.0000541451384" y="621.9970845829371" as="geometry" />
        </mxCell>
        <mxCell id="BZxrtc8_AJxCAqxQdeYi-96" style="edgeStyle=orthogonalEdgeStyle;rounded=0;orthogonalLoop=1;jettySize=auto;html=1;entryX=0.5;entryY=0;entryDx=0;entryDy=0;sketch=1;curveFitting=1;jiggle=2;" edge="1" parent="1" source="BZxrtc8_AJxCAqxQdeYi-93" target="BZxrtc8_AJxCAqxQdeYi-90">
          <mxGeometry relative="1" as="geometry">
            <Array as="points">
              <mxPoint x="1405" y="510" />
              <mxPoint x="1150" y="510" />
            </Array>
          </mxGeometry>
        </mxCell>
        <mxCell id="BZxrtc8_AJxCAqxQdeYi-93" value="&amp;nbsp;Ldap Server&amp;nbsp;" style="rounded=0;whiteSpace=wrap;html=1;sketch=1;curveFitting=1;jiggle=2;fillColor=#d5e8d4;strokeColor=#82b366;horizontal=1;verticalAlign=top;align=left;fontFamily=Comic Sans MS;" vertex="1" parent="1">
          <mxGeometry x="1345" y="530" width="120" height="84" as="geometry" />
        </mxCell>
        <mxCell id="BZxrtc8_AJxCAqxQdeYi-94" value="" style="verticalLabelPosition=bottom;html=1;verticalAlign=top;align=center;strokeColor=none;fillColor=#00BEF2;shape=mxgraph.azure.azure_active_directory;opacity=50;" vertex="1" parent="1">
          <mxGeometry x="1379.25" y="554" width="47.5" height="50" as="geometry" />
        </mxCell>
        <mxCell id="BZxrtc8_AJxCAqxQdeYi-98" value="&lt;h1&gt;&lt;font style=&quot;font-size: 19px;&quot;&gt;Change Validation&lt;/font&gt;&lt;/h1&gt;&lt;p&gt;&lt;b&gt;&amp;gt;&lt;/b&gt; Parse checkout-changes&lt;br&gt;&lt;b style=&quot;border-color: var(--border-color);&quot;&gt;&amp;gt;&lt;/b&gt;&amp;nbsp;Parse group membership&lt;br&gt;&lt;span style=&quot;background-color: initial;&quot;&gt;&lt;b&gt;&amp;gt;&lt;/b&gt; Allow .resource-qouta change only if memberOf x&lt;br&gt;&lt;/span&gt;&lt;/p&gt;&lt;p&gt;&lt;br&gt;&lt;/p&gt;" style="text;html=1;strokeColor=none;fillColor=none;spacing=5;spacingTop=-20;whiteSpace=wrap;overflow=hidden;rounded=0;fontFamily=Comic Sans MS;spacingBottom=0;" vertex="1" parent="1">
          <mxGeometry x="1020" y="710" width="420" height="105" as="geometry" />
        </mxCell>
        <mxCell id="BZxrtc8_AJxCAqxQdeYi-99" value="&lt;font face=&quot;Comic Sans MS&quot;&gt;Param: x&lt;/font&gt;" style="text;html=1;align=center;verticalAlign=middle;resizable=0;points=[];autosize=1;strokeColor=none;fillColor=none;fontSize=10;fontStyle=3;fontColor=#FF8000;" vertex="1" parent="1">
          <mxGeometry x="294.5" y="289" width="70" height="30" as="geometry" />
        </mxCell>
        <mxCell id="BZxrtc8_AJxCAqxQdeYi-105" value="&lt;font face=&quot;Comic Sans MS&quot; style=&quot;font-size: 9px;&quot;&gt;&amp;nbsp;Stage&amp;nbsp;&lt;/font&gt;" style="text;html=1;align=center;verticalAlign=middle;resizable=0;points=[];autosize=1;strokeColor=none;fillColor=none;fontSize=9;labelBorderColor=default;" vertex="1" parent="1">
          <mxGeometry x="229.5" y="680" width="50" height="20" as="geometry" />
        </mxCell>
        <mxCell id="BZxrtc8_AJxCAqxQdeYi-106" value="&lt;font face=&quot;Comic Sans MS&quot; style=&quot;font-size: 9px;&quot;&gt;&amp;nbsp;Stage&amp;nbsp;&lt;/font&gt;" style="text;html=1;align=center;verticalAlign=middle;resizable=0;points=[];autosize=1;strokeColor=none;fillColor=none;fontSize=9;labelBorderColor=default;" vertex="1" parent="1">
          <mxGeometry x="229.5" y="470" width="50" height="20" as="geometry" />
        </mxCell>
        <mxCell id="BZxrtc8_AJxCAqxQdeYi-107" value="&lt;font face=&quot;Comic Sans MS&quot; style=&quot;font-size: 9px;&quot;&gt;&amp;nbsp;Stage&amp;nbsp;&lt;/font&gt;" style="text;html=1;align=center;verticalAlign=middle;resizable=0;points=[];autosize=1;strokeColor=none;fillColor=none;fontSize=9;labelBorderColor=default;rounded=0;" vertex="1" parent="1">
          <mxGeometry x="229.5" y="280" width="50" height="20" as="geometry" />
        </mxCell>
      </root>
    </mxGraphModel>
  </diagram>
</mxfile>
